# File created by Blade
# Date/Time:  Wed Jan 21 15:55:51 2015
# Frame Rate: 120.000 fps
#------------------------------------------------------
:FULLY-SPECIFIED
:DEGREES
1325
root 19.387391 35.356196 -22.624865 -174.132556 -1.949101 -178.527543
Spine -16.792520 1.539802 -1.193202
Head 11.846670 -4.197553 1.310680
LeftShoulder -11.639727 -33.875310 24.206627
LeftArm 0.277341 -2.296064 -3.833575
LeftForeArm 13.742411 -0.000000 -2.838459
LeftHand -8.820961 -0.000000 -1.972536
LeftHandThumb1 -26.253704 0.000000 33.147579
RightShoulder -15.443034 -3.275261 -11.206656
RightArm 0.685799 39.380503 7.547822
RightForeArm -37.817337 -0.000000 4.396339
RightHand -7.575489 -0.000000 5.347849
RightHandThumb1 -24.326973 -0.000000 -32.862282
LeftUpLeg 4.997475 8.617966 4.702299
LeftLeg -6.630108 -0.000000 0.000000
LeftFoot -21.713868 24.536164 -15.364673
LeftToeBase 26.084871 -0.000000 -0.000000
RightUpLeg 4.558466 -8.833579 -0.454431
RightLeg -3.245107 -0.000000 0.000000
RightFoot -23.240150 -25.781190 17.912133
RightToeBase 23.224892 -0.000000 -0.000000
1326
root 19.377506 35.355662 -22.630088 -174.132704 -2.002920 -178.534293
Spine -16.820532 1.512629 -1.157211
Head 11.840140 -4.111508 1.254443
LeftShoulder -11.594091 -33.911483 24.161430
LeftArm 0.234574 -2.293055 -3.851631
LeftForeArm 13.720561 -0.000000 -2.835146
LeftHand -8.806023 0.000000 -2.080141
LeftHandThumb1 -26.253704 0.000000 33.147579
RightShoulder -15.426660 -3.281189 -11.205072
RightArm 0.726994 39.438005 7.597646
RightForeArm -37.944718 -0.000000 4.399624
RightHand -7.626657 0.000000 5.300816
RightHandThumb1 -24.326973 -0.000000 -32.862282
LeftUpLeg 4.999919 8.614038 4.684451
LeftLeg -6.640942 -0.000000 0.000000
LeftFoot -21.712245 24.501922 -15.348936
LeftToeBase 26.110706 -0.000000 -0.000000
RightUpLeg 4.578838 -8.874612 -0.466491
RightLeg -3.252132 -0.000000 0.000000
RightFoot -23.246255 -25.843884 17.842006
RightToeBase 23.407692 -0.000000 -0.000000
1327
root 19.368210 35.354597 -22.634851 -174.141947 -2.061817 -178.545494
Spine -16.836653 1.469820 -1.120890
Head 11.846127 -3.997172 1.188252
LeftShoulder -11.555202 -33.930815 24.117664
LeftArm 0.197254 -2.238441 -3.878637
LeftForeArm 13.689504 -0.000000 -2.813126
LeftHand -8.797334 -0.000000 -2.069006
LeftHandThumb1 -26.253704 0.000000 33.147579
RightShoulder -15.376664 -3.269029 -11.220843
RightArm 0.700232 39.432035 7.602614
RightForeArm -38.034741 -0.000000 4.432372
RightHand -7.564227 -0.000000 5.386285
RightHandThumb1 -24.326973 -0.000000 -32.862282
LeftUpLeg 5.006831 8.591883 4.666314
LeftLeg -6.641397 -0.000000 0.000000
LeftFoot -21.699387 24.470913 -15.315491
LeftToeBase 26.124234 -0.000000 -0.000000
RightUpLeg 4.600475 -8.934432 -0.484306
RightLeg -3.248012 -0.000000 0.000000
RightFoot -23.257924 -25.861887 17.923301
RightToeBase 23.550259 -0.000000 -0.000000
1328
root 19.358115 35.354018 -22.639706 -174.140787 -2.111804 -178.560586
Spine -16.867621 1.449590 -1.096371
Head 11.845257 -3.911523 1.128620
LeftShoulder -11.512744 -33.933488 24.076272
LeftArm 0.171431 -2.184962 -3.927149
LeftForeArm 13.641821 -0.000000 -2.781895
LeftHand -8.811399 0.000000 -2.067663
LeftHandThumb1 -26.253704 0.000000 33.147579
RightShoulder -15.380573 -3.260762 -11.212844
RightArm 0.770569 39.389809 7.630646
RightForeArm -37.976789 -0.000000 4.395982
RightHand -7.575619 -0.000000 5.355460
RightHandThumb1 -24.326973 -0.000000 -32.862282
LeftUpLeg 5.009685 8.558968 4.641500
LeftLeg -6.654426 -0.000000 0.000000
LeftFoot -21.707261 24.451081 -15.318165
LeftToeBase 26.150305 -0.000000 -0.000000
RightUpLeg 4.612248 -8.970492 -0.503933
RightLeg -3.245823 -0.000000 0.000000
RightFoot -23.279526 -25.904691 17.869414
RightToeBase 23.389500 -0.000000 -0.000000
1329
root 19.348821 35.352622 -22.644125 -174.150158 -2.163825 -178.575284
Spine -16.880674 1.412499 -1.074327
Head 11.835439 -3.812859 1.082712
LeftShoulder -11.465320 -33.946554 24.041038
LeftArm 0.130224 -2.099787 -3.962852
LeftForeArm 13.579383 -0.000000 -2.759979
LeftHand -8.804630 -0.000000 -2.113030
LeftHandThumb1 -26.253704 0.000000 33.147579
RightShoulder -15.349168 -3.246621 -11.204122
RightArm 0.827381 39.277146 7.655307
RightForeArm -37.784055 0.000000 4.322461
RightHand -7.644607 -0.000000 5.193625
RightHandThumb1 -24.326973 -0.000000 -32.862282
LeftUpLeg 5.014153 8.526548 4.617786
LeftLeg -6.648623 -0.000000 0.000000
LeftFoot -21.721375 24.440640 -15.309125
LeftToeBase 26.166917 -0.000000 -0.000000
RightUpLeg 4.637716 -9.008673 -0.530825
RightLeg -3.245787 -0.000000 0.000000
RightFoot -23.291572 -25.877182 17.921313
RightToeBase 23.231545 -0.000000 -0.000000
1330
root 19.338359 35.351144 -22.650759 -174.164796 -2.254300 -178.599667
Spine -16.887568 1.352477 -1.060775
Head 11.804054 -3.732458 1.036938
LeftShoulder -11.417428 -33.932979 24.000906
LeftArm 0.102671 -2.084492 -4.015903
LeftForeArm 13.596329 -0.000000 -2.716431
LeftHand -8.802118 -0.000000 -2.087572
LeftHandThumb1 -26.253704 0.000000 33.147579
RightShoulder -15.343184 -3.229601 -11.219564
RightArm 0.847054 39.240678 7.690262
RightForeArm -37.796495 -0.000000 4.344001
RightHand -7.671871 -0.000000 5.181858
RightHandThumb1 -24.326973 -0.000000 -32.862282
LeftUpLeg 5.026375 8.419563 4.584523
LeftLeg -6.654096 -0.000000 0.000000
LeftFoot -21.722079 24.466968 -15.296692
LeftToeBase 26.086076 -0.000000 -0.000000
RightUpLeg 4.679931 -9.077671 -0.563551
RightLeg -3.251057 -0.000000 0.000000
RightFoot -23.322469 -25.934551 17.880940
RightToeBase 23.343164 -0.000000 -0.000000
1331
root 19.331188 35.349893 -22.651675 -174.179493 -2.269610 -178.611681
Spine -16.875023 1.358909 -1.052620
Head 11.749300 -3.644907 1.016963
LeftShoulder -11.374764 -33.927507 23.975342
LeftArm 0.069549 -2.011385 -4.070119
LeftForeArm 13.510575 -0.000000 -2.689471
LeftHand -8.744212 -0.000000 -2.117063
LeftHandThumb1 -26.253704 0.000000 33.147579
RightShoulder -15.324391 -3.214619 -11.201922
RightArm 0.855065 39.249320 7.694861
RightForeArm -37.782980 -0.000000 4.353436
RightHand -7.714475 -0.000000 5.147855
RightHandThumb1 -24.326973 -0.000000 -32.862282
LeftUpLeg 5.037095 8.400407 4.560977
LeftLeg -6.645669 -0.000000 0.000000
LeftFoot -21.744752 24.495693 -15.274511
LeftToeBase 26.210557 -0.000000 -0.000000
RightUpLeg 4.686384 -9.043201 -0.580552
RightLeg -3.228940 -0.000000 0.000000
RightFoot -23.351948 -26.012552 17.853726
RightToeBase 23.366170 -0.000000 -0.000000
1332
root 19.322914 35.348703 -22.655660 -174.195676 -2.305438 -178.627402
Spine -16.870024 1.346564 -1.041168
Head 11.706475 -3.551738 0.986837
LeftShoulder -11.332079 -33.901482 23.944584
LeftArm 0.045319 -1.881068 -4.133235
LeftForeArm 13.425616 -0.000000 -2.671895
LeftHand -8.733707 -0.000000 -2.109269
LeftHandThumb1 -26.253704 0.000000 33.147579
RightShoulder -15.312684 -3.216840 -11.199046
RightArm 0.877913 39.295362 7.715062
RightForeArm -37.804144 0.000000 4.356412
RightHand -7.710090 -0.000000 5.126681
RightHandThumb1 -24.326973 -0.000000 -32.862282
LeftUpLeg 5.055545 8.345416 4.537036
LeftLeg -6.647758 -0.000000 0.000000
LeftFoot -21.745888 24.509546 -15.269377
LeftToeBase 26.164887 -0.000000 -0.000000
RightUpLeg 4.708586 -9.046608 -0.600575
RightLeg -3.219756 -0.000000 0.000000
RightFoot -23.384998 -26.069166 17.855163
RightToeBase 23.415335 -0.000000 -0.000000
1333
root 19.314838 35.347557 -22.659583 -174.228046 -2.341548 -178.636482
Spine -16.840385 1.335216 -1.019646
Head 11.648397 -3.477746 0.946407
LeftShoulder -11.274121 -33.896627 23.892287
LeftArm 0.004431 -1.765683 -4.171487
LeftForeArm 13.402553 0.000000 -2.646209
LeftHand -8.734204 -0.000000 -2.122828
LeftHandThumb1 -26.253704 0.000000 33.147579
RightShoulder -15.316664 -3.274917 -11.190111
RightArm 0.927057 39.440583 7.768462
RightForeArm -37.876565 -0.000000 4.356200
RightHand -7.662113 -0.000000 5.083112
RightHandThumb1 -24.326973 -0.000000 -32.862282
LeftUpLeg 5.095224 8.293957 4.522417
LeftLeg -6.662530 -0.000000 0.000000
LeftFoot -21.752178 24.531028 -15.253030
LeftToeBase 26.202440 -0.000000 -0.000000
RightUpLeg 4.746948 -9.054217 -0.620064
RightLeg -3.210914 -0.000000 0.000000
RightFoot -23.405984 -26.121784 17.863174
RightToeBase 23.388850 -0.000000 -0.000000
1334
root 19.307958 35.347194 -22.663974 -174.262172 -2.370325 -178.639035
Spine -16.811919 1.317713 -0.985456
Head 11.594350 -3.374686 0.908764
LeftShoulder -11.250927 -33.847698 23.859230
LeftArm -0.011448 -1.655402 -4.239700
LeftForeArm 13.329346 -0.000000 -2.640481
LeftHand -8.662558 -0.000000 -2.231977
LeftHandThumb1 -26.253704 0.000000 33.147579
RightShoulder -15.290359 -3.253610 -11.196302
RightArm 0.924462 39.466587 7.760828
RightForeArm -37.923470 -0.000000 4.378565
RightHand -7.674268 0.000000 5.165508
RightHandThumb1 -24.326973 -0.000000 -32.862282
LeftUpLeg 5.138345 8.242125 4.516726
LeftLeg -6.673930 -0.000000 0.000000
LeftFoot -21.759376 24.548474 -15.253683
LeftToeBase 26.173262 -0.000000 -0.000000
RightUpLeg 4.785901 -9.049370 -0.636916
RightLeg -3.198769 -0.000000 0.000000
RightFoot -23.421345 -26.121244 17.948124
RightToeBase 23.576726 -0.000000 -0.000000
1335
root 19.300874 35.346318 -22.667990 -174.300884 -2.388903 -178.646689
Spine -16.774144 1.314659 -0.965751
Head 11.533592 -3.291263 0.886620
LeftShoulder -11.219491 -33.815754 23.822750
LeftArm -0.020208 -1.494813 -4.299802
LeftForeArm 13.305640 -0.000000 -2.646211
LeftHand -8.635332 0.000000 -2.169691
LeftHandThumb1 -26.253704 0.000000 33.147579
RightShoulder -15.287724 -3.280353 -11.185660
RightArm 0.983376 39.556520 7.798409
RightForeArm -37.978458 0.000000 4.361900
RightHand -7.716441 -0.000000 5.125720
RightHandThumb1 -24.326973 -0.000000 -32.862282
LeftUpLeg 5.191370 8.195842 4.505834
LeftLeg -6.693068 -0.000000 0.000000
LeftFoot -21.779619 24.554497 -15.287379
LeftToeBase 26.101112 -0.000000 -0.000000
RightUpLeg 4.825722 -9.055473 -0.657495
RightLeg -3.182396 -0.000000 0.000000
RightFoot -23.438447 -26.139376 17.946077
RightToeBase 23.608545 -0.000000 -0.000000
